<svg width="200" height="24" viewBox="0 0 200 24" fill="none" xmlns="http://www.w3.org/2000/svg">
<path fill-rule="evenodd" clip-rule="evenodd" d="M28.8507 9.8168C28.1772 3.24268 24.3934 0 18.0996 0H14.8115C8.5176 0 4.73386 3.24268 4.06036 9.8168H0V14.4542H4.08099C4.80544 20.841 8.5547 23.9699 14.8115 23.9699H18.0996C24.3858 23.9699 28.1143 20.8626 28.8318 14.4542H33.0015V9.8168H28.8507ZM8.1448 12.0452C8.1448 6.53451 10.1961 4.1857 14.8115 4.1857H18.0996C22.7149 4.1857 24.7059 6.53451 24.7059 12.0151C24.7059 17.4956 22.7149 19.7842 18.0996 19.7842H14.8115C10.1357 19.7842 8.1448 17.5257 8.1448 12.0452ZM48.2353 0C55.2338 0 59.0649 3.91468 59.0649 12.0151C59.0649 20.0853 55.2941 24 48.2353 24H39.7587C38.4012 24 37.7677 23.3676 37.7677 22.0427V1.95734C37.7677 0.632371 38.4012 0 39.7587 0H48.2353ZM41.9608 19.3626C41.9608 19.6939 42.1116 19.7842 42.4133 19.7842H48.2051C52.8808 19.7842 54.8115 17.4655 54.8115 11.9548C54.8115 6.47428 52.8507 4.1857 48.2051 4.1857H42.4133C42.0815 4.1857 41.9608 4.30615 41.9608 4.60728V19.3626ZM74.7813 10.2685L68.0543 0H62.9864L72.6697 13.6412V23.9699H76.8929V13.6412L86.5762 0H81.5988L74.7813 10.2685ZM111.071 0V4.1857H98.7632C96.5913 4.1857 95.626 5.3601 95.626 7.01631C95.626 8.46173 96.3801 9.84693 99.1855 9.84693H104.796C111.342 9.84693 112.881 13.4605 112.881 16.9235C112.881 20.9887 110.709 23.9699 105.219 23.9699H91.825V19.7842H105.339C107.632 19.7842 108.658 18.5496 108.658 16.803C108.658 15.2371 107.843 13.8218 104.887 13.8218H99.3062C92.911 13.8218 91.4027 10.2384 91.4027 6.89586C91.4027 2.92095 93.5445 0 98.8839 0H111.071ZM139.97 4.1857V0H127.783C122.443 0 120.302 2.92095 120.302 6.89586C120.302 10.2384 121.81 13.8218 128.205 13.8218H133.786C136.742 13.8218 137.557 15.2371 137.557 16.803C137.557 18.5496 136.531 19.7842 134.238 19.7842H120.724V23.9699H134.118C139.608 23.9699 141.78 20.9887 141.78 16.9235C141.78 13.4605 140.241 9.84693 133.695 9.84693H128.084C125.279 9.84693 124.525 8.46173 124.525 7.01631C124.525 5.3601 125.49 4.1857 127.662 4.1857H139.97ZM169.502 0V4.1857H157.466C154.932 4.1857 153.846 5.3601 153.846 7.19699C153.846 9.15433 155.083 10.0276 157.526 10.0276H169.351V13.8519H157.436C155.023 13.8519 153.756 14.8156 153.756 16.7729C153.756 18.67 154.932 19.7842 157.376 19.7842H169.563V23.9699H157.376C151.674 23.9699 149.382 21.1694 149.382 17.4354C149.382 14.6951 150.618 12.8582 152.821 11.9247C150.588 10.9912 149.442 9.15433 149.442 6.53451C149.442 2.71016 151.825 0 157.466 0H169.502ZM188.235 10.2685L181.508 0H176.41L186.124 13.6412V23.9699H190.347V13.6412L200 0H195.023L188.235 10.2685Z" fill="white"/>
</svg>
